PathFileType	4	(x/y/z)	S09_PSF_T08
DataRate	CameraRate	NumFrames	NumMarkers	Units	OrigDataRate	OrigDataStartFrame	OrigNumFrames
240	240	6	51	mm	240	414	473
Frame#	Time	Sternum			R.Acromium			L.Acromium			Top.Head			R.ASIS			L.ASIS			R.PSIS			L.PSIS			R.Great.Tro			L.Great.Tro			R.Iliac.Crest			L.Iliac.Crest			V.Sacral			R.Thigh.Upper.Post			R.Thigh.Lower.Ant			R.Thigh.Lower.Post			R.Thigh.Upper.Ant			R.Knee.Lat			R.Knee.Med			R.Shank.Upper.Post			R.Shank.Lower.Ant			R.Shank.Lower.Post			R.Shank.Upper.Ant			R.Ankle.Lat			R.Ankle.Med			R.Heel.Upper			R.Heel.Med			R.Heel.Lat			R.Toe.Lat			R.Toe.Med			R.Toe.Tip			L.Thigh.Upper.Post			L.Thigh.Lower.Ant			L.Thigh.Lower.Post			L.Thigh.Upper.Ant			L.Knee.Lat			L.Knee.Med			L.Shank.Upper.Post			L.Shank.Lower.Ant			L.Shank.Lower.Post			L.Shank.Upper.Ant			L.Ankle.Lat			L.Ankle.Med			L.Heel.Upper			L.Heel.Med			L.Heel.Lat			L.Toe.Lat			L.Toe.Med			L.Toe.Tip			Cervical.Spine			Back			
		X1	Y1	Z1	X2	Y2	Z2	X3	Y3	Z3	X4	Y4	Z4	X5	Y5	Z5	X6	Y6	Z6	X7	Y7	Z7	X8	Y8	Z8	X9	Y9	Z9	X10	Y10	Z10	X11	Y11	Z11	X12	Y12	Z12	X13	Y13	Z13	X14	Y14	Z14	X15	Y15	Z15	X16	Y16	Z16	X17	Y17	Z17	X18	Y18	Z18	X19	Y19	Z19	X20	Y20	Z20	X21	Y21	Z21	X22	Y22	Z22	X23	Y23	Z23	X24	Y24	Z24	X25	Y25	Z25	X26	Y26	Z26	X27	Y27	Z27	X28	Y28	Z28	X29	Y29	Z29	X30	Y30	Z30	X31	Y31	Z31	X32	Y32	Z32	X33	Y33	Z33	X34	Y34	Z34	X35	Y35	Z35	X36	Y36	Z36	X37	Y37	Z37	X38	Y38	Z38	X39	Y39	Z39	X40	Y40	Z40	X41	Y41	Z41	X42	Y42	Z42	X43	Y43	Z43	X44	Y44	Z44	X45	Y45	Z45	X46	Y46	Z46	X47	Y47	Z47	X48	Y48	Z48	X49	Y49	Z49	X50	Y50	Z50	X51	Y51	Z51	

414	1.7208	595.22	1165.5	309.05	444.46	1411.7	463.75	471.14	1420.1	149.73	469.06	1719.9	309.26	543.68	999.23	408.7	532.12	1002.8	163.12	318.45	1021.9	342.53	324.32	1034.3	253.79	468.64	911.2	484.61	443.99	921.59	95.594	453.54	1076.2	458.03	430.61	1102.4	134.72	301.44	994.65	291.49	542.62	670.4	471.26	643.01	598.3	433.07	566.43	581.78	445.5	612.92	680.99	458.4	646.31	529.24	430.84	639.18	509.86	301.76	660.27	345.24	444.67	749.62	324.34	439.72	695.78	276.71	437.27	710.33	387.2	446.87	820.12	120.92	430.19	843.12	151.19	345.92	782.16	68.588	371.13	812.33	51.482	343.29	799.35	42.101	405.81	933.93	117.38	477.49	976.1	159.39	381.11	999.18	195.87	430.05	316.22	692.52	157.43	366.25	576.6	152.26	305.35	603.41	173.6	377.09	663.05	130.13	328.31	503.09	164.68	358.69	509.77	295.36	243.05	385.43	159.61	280.1	282.23	174.72	222.54	311.87	170.21	300.23	357.18	165.36	185.63	114.89	202.08	202.44	106.2	294.15	108.16	82.438	256.95	119.85	55.483	288.35	105.2	55.512	228.2	274.48	42.472	164.65	318.79	36.782	271.13	367.78	48.16	208.72	384.68	1464.9	314.01	331.52	1200	284.23
415	1.725	600.87	1164.6	309.33	449.88	1410.8	464.18	476.47	1419.1	150.08	474.32	1718.9	309.55	549.69	998.23	408.9	537.41	1001.7	163.26	324.26	1021	343.46	329.95	1033.3	254.71	474.99	910.5	485.17	448.88	920.68	95.93	459.61	1075.4	458.51	435.88	1101.4	135.28	307.12	993.74	292.48	549.23	669.89	471.59	649.5	597.95	432.75	573.06	581.29	445.72	619.44	680.59	458.27	652.78	528.68	430.52	645.1	509.34	301.7	666.1	344.47	444.38	755.34	323.31	439.12	701.36	275.87	436.8	716.3	386.26	446.48	825.39	119.87	429.29	847.95	150.27	344.94	787.1	67.861	370.42	817.1	50.811	342.38	804.46	41.288	404.94	939.41	116.19	476.01	981.04	158.46	379.49	1004.3	194.87	428.35	320.46	692.17	157.92	369.94	576.01	152.53	309.2	603.09	174.04	381.1	662.45	130.43	331.72	502.67	165.03	362.42	509.05	295.6	245.71	385.64	159.85	281.99	282.15	174.9	224.66	312.22	170.42	302.7	356.95	165.61	186.18	115.5	202.12	202.94	106.68	294.14	108.46	83.176	256.91	120.04	56.22	288.34	105.39	56.233	228.19	274.59	42.458	164.62	318.91	36.753	271.04	367.96	47.893	208.64	390.11	1463.9	314.39	337.05	1198.9	284.8
416	1.7292	606.54	1163.7	309.63	455.32	1409.9	464.62	481.8	1418	150.44	479.59	1718	309.85	555.73	997.28	409.11	542.75	1000.6	163.42	330.09	1020.1	344.37	335.61	1032.4	255.61	481.36	909.87	485.74	453.79	919.76	96.293	465.69	1074.6	458.99	441.19	1100.4	135.83	312.83	992.83	293.48	555.97	669.44	471.92	656.14	597.71	432.43	579.84	580.87	445.93	626.07	680.28	458.13	659.37	528.13	430.18	651.28	508.93	301.68	671.77	343.69	444	760.86	322.13	438.49	706.68	274.97	436.27	722.16	385.23	446.05	830.14	118.62	428.36	852.32	149.09	343.94	791.43	67.08	369.67	821.24	50.018	341.45	808.89	40.392	404.06	944.33	114.6	474.51	985.53	157.04	377.86	1008.9	193.34	426.65	324.77	691.78	158.44	373.72	575.41	152.85	313.15	602.74	174.5	385.21	661.82	130.75	335.23	502.23	165.42	366.24	508.33	295.89	248.46	385.86	160.13	283.94	282.08	175.11	226.85	312.58	170.68	305.24	356.71	165.88	186.75	116.15	202.17	203.47	107.18	294.15	108.79	83.984	256.86	120.25	57.026	288.34	105.59	57.024	228.17	274.71	42.451	164.6	319.04	36.733	270.94	368.14	47.628	208.56	395.55	1462.9	314.79	342.58	1197.8	285.38
417	1.7333	612.23	1162.8	309.93	460.79	1408.9	465.07	487.14	1416.9	150.81	484.84	1717.1	310.15	561.79	996.38	409.33	548.12	999.42	163.59	335.94	1019.3	345.29	341.29	1031.4	256.51	487.75	909.3	486.31	458.75	918.81	96.682	471.78	1073.8	459.47	446.52	1099.4	136.38	318.57	991.92	294.48	562.82	669.04	472.23	662.92	597.56	432.09	586.78	580.51	446.13	632.82	680.05	457.98	666.09	527.57	429.82	657.7	508.62	301.68	677.3	342.9	443.55	766.21	320.82	437.84	711.75	274	435.68	727.94	384.11	445.59	834.41	117.2	427.42	856.26	147.67	342.92	795.21	66.269	368.92	824.78	49.126	340.53	812.71	39.442	403.17	948.75	112.65	472.99	989.6	155.15	376.21	1013.2	191.32	424.92	329.17	691.37	158.97	377.61	574.79	153.2	317.2	602.37	175.01	389.4	661.18	131.11	338.84	501.77	165.86	370.16	507.6	296.22	251.3	386.09	160.44	285.95	282.01	175.34	229.12	312.95	170.96	307.85	356.48	166.19	187.37	116.85	202.22	204.03	107.73	294.16	109.15	84.867	256.81	120.47	57.906	288.33	105.81	57.891	228.16	274.83	42.453	164.58	319.18	36.724	270.85	368.33	47.364	208.48	401	1461.9	315.2	348.13	1196.7	285.98
418	1.7375	617.93	1161.9	310.26	466.27	1408	465.54	492.49	1415.9	151.2	490.1	1716.2	310.46	567.89	995.55	409.57	553.54	998.28	163.79	341.82	1018.4	346.19	347.01	1030.4	257.4	494.18	908.8	486.88	463.75	917.85	97.099	477.88	1073.1	459.95	451.89	1098.4	136.93	324.35	991.02	295.48	569.76	668.68	472.52	669.82	597.48	431.74	593.83	580.2	446.3	639.65	679.88	457.82	672.9	527.02	429.45	664.34	508.41	301.69	682.7	342.11	443.04	771.39	319.38	437.16	716.6	272.99	435.05	733.63	382.92	445.11	838.27	115.64	426.47	859.82	146.05	341.89	798.5	65.456	368.17	827.77	48.161	339.63	815.96	38.468	402.3	952.72	110.38	471.47	993.3	152.83	374.55	1017.2	188.84	423.18	333.64	690.93	159.53	381.6	574.16	153.6	321.34	601.96	175.55	393.67	660.52	131.5	342.56	501.3	166.34	374.18	506.87	296.59	254.22	386.33	160.78	288.03	281.96	175.59	231.45	313.35	171.28	310.55	356.24	166.53	188.02	117.6	202.28	204.62	108.31	294.18	109.54	85.831	256.77	120.72	58.864	288.34	106.06	58.84	228.16	274.96	42.465	164.56	319.33	36.727	270.76	368.53	47.102	208.4	406.46	1460.9	315.62	353.69	1195.6	286.59
419	1.7417	623.65	1161	310.6	471.77	1407.2	466.02	497.85	1414.9	151.6	495.35	1715.4	310.78	574.03	994.77	409.83	559	997.14	164	347.73	1017.6	347.08	352.75	1029.5	258.28	500.63	908.35	487.46	468.8	916.89	97.543	484	1072.4	460.43	457.29	1097.3	137.47	330.17	990.14	296.48	576.79	668.35	472.8	676.8	597.46	431.38	600.98	579.93	446.44	646.57	679.75	457.67	679.8	526.47	429.05	671.16	508.3	301.71	687.98	341.31	442.47	776.43	317.85	436.47	721.25	271.94	434.38	739.25	381.67	444.59	841.75	113.97	425.53	863.06	144.25	340.87	801.35	64.67	367.44	830.29	47.152	338.76	818.7	37.503	401.47	956.28	107.83	469.94	996.68	150.13	372.89	1020.9	185.96	421.42	338.2	690.47	160.12	385.69	573.51	154.04	325.59	601.54	176.14	398.04	659.86	131.92	346.38	500.82	166.85	378.3	506.14	297.01	257.23	386.59	161.16	290.17	281.92	175.88	233.86	313.77	171.64	313.32	356.01	166.9	188.71	118.4	202.36	205.26	108.93	294.21	109.98	86.881	256.74	121	59.905	288.35	106.33	59.876	228.16	275.1	42.487	164.54	319.49	36.742	270.66	368.74	46.843	208.32	411.94	1460	316.06	359.27	1194.5	287.21
